Coordinates
version=1
nRows=42
nColumns=38
inDegrees=no

Units are S.I. units (second, meters, Newtons, ...)
If the header above contains a line with 'inDegrees', this indicates whether rotational values are in degrees (yes) or radians (no).

endheader
time	pelvis_tilt	pelvis_list	pelvis_rotation	pelvis_tx	pelvis_ty	pelvis_tz	hip_flexion_r	hip_adduction_r	hip_rotation_r	knee_angle_r	ankle_angle_r	subtalar_angle_r	mtp_angle_r	hip_flexion_l	hip_adduction_l	hip_rotation_l	knee_angle_l	ankle_angle_l	subtalar_angle_l	mtp_angle_l	lumbar_extension	lumbar_bending	lumbar_rotation	arm_flex_r	arm_add_r	arm_rot_r	elbow_flex_r	pro_sup_r	wrist_flex_r	wrist_dev_r	arm_flex_l	arm_add_l	arm_rot_l	elbow_flex_l	pro_sup_l	wrist_flex_l	wrist_dev_l
60.95	0.341033	1.30514	1.36859	0.644989	0.269467	0.865891	1.06209	-0.23752	-0.19159	1.27604	-0.0919161	0	0	1.0451	-0.537431	-0.246413	1.32336	-0.0447606	0	0	-0.693276	-0.0849081	0.0580987	0.841406	-0.525152	0.235868	1.17735	0.824989	0	0	0.966576	-0.333938	0.201257	1.19853	1.02746	0	0
60.96	0.334824	1.29996	1.37284	0.645407	0.268291	0.861384	1.07794	-0.239062	-0.189173	1.28873	-0.0893711	0	0	1.06088	-0.541513	-0.24281	1.33669	-0.0422772	0	0	-0.694742	-0.0883295	0.0602448	0.846077	-0.524338	0.232327	1.17492	0.826579	0	0	0.975927	-0.331319	0.203658	1.19423	1.02794	0	0
60.97	0.326922	1.29437	1.37868	0.645839	0.267186	0.856856	1.09438	-0.240886	-0.186607	1.30142	-0.0865957	0	0	1.07665	-0.545251	-0.239672	1.34971	-0.0394769	0	0	-0.695406	-0.0921891	0.0623493	0.850134	-0.523618	0.227848	1.17258	0.828117	0	0	0.984722	-0.328559	0.206085	1.19013	1.02877	0	0
60.98	0.317454	1.28828	1.38629	0.646279	0.266121	0.852314	1.11161	-0.243413	-0.184214	1.31436	-0.0835581	0	0	1.09276	-0.548236	-0.236535	1.36241	-0.0362765	0	0	-0.695222	-0.0965135	0.0643703	0.853111	-0.522972	0.222408	1.17062	0.830073	0	0	0.993334	-0.325354	0.208717	1.18601	1.03094	0	0
60.99	0.309047	1.2828	1.39332	0.646692	0.265077	0.847936	1.12759	-0.245922	-0.181787	1.32665	-0.0807732	0	0	1.10822	-0.550609	-0.232789	1.37464	-0.0336341	0	0	-0.696125	-0.10027	0.0651037	0.857327	-0.521647	0.218538	1.16878	0.831397	0	0	1.00108	-0.323511	0.210255	1.18404	1.03347	0	0
61	0.300573	1.27728	1.40015	0.647153	0.26411	0.843613	1.14352	-0.247848	-0.178579	1.33871	-0.078142	0	0	1.12371	-0.553229	-0.229262	1.3868	-0.0315529	0	0	-0.696713	-0.104215	0.0657867	0.861451	-0.520473	0.215582	1.16711	0.833544	0	0	1.0082	-0.321871	0.21135	1.18259	1.03606	0	0
61.01	0.291831	1.27144	1.40681	0.647649	0.263184	0.839265	1.16013	-0.249166	-0.173925	1.35047	-0.0762479	0	0	1.13955	-0.556107	-0.225799	1.39893	-0.0301283	0	0	-0.696459	-0.108446	0.0668816	0.865147	-0.520091	0.213517	1.1658	0.836932	0	0	1.01488	-0.320044	0.21275	1.18091	1.03846	0	0
61.02	0.283377	1.26538	1.41265	0.648184	0.262342	0.834939	1.17691	-0.249473	-0.168592	1.36188	-0.0746066	0	0	1.15503	-0.559546	-0.222625	1.41066	-0.0287453	0	0	-0.695801	-0.112755	0.0684381	0.86832	-0.519855	0.210466	1.16517	0.839208	0	0	1.02074	-0.318176	0.213811	1.17963	1.0407	0	0
61.03	0.275404	1.2592	1.41796	0.648724	0.261617	0.830647	1.1934	-0.249293	-0.163463	1.37312	-0.0728139	0	0	1.17013	-0.563033	-0.219293	1.42178	-0.0271694	0	0	-0.694887	-0.117037	0.0698846	0.87116	-0.51951	0.20665	1.16479	0.83987	0	0	1.02572	-0.316224	0.214134	1.17873	1.04275	0	0
61.04	0.249674	1.24099	1.43917	0.64981	0.260767	0.824199	1.2281	-0.248177	-0.150462	1.38847	-0.0689008	0	0	1.19787	-0.564402	-0.217299	1.43386	-0.0243684	0	0	-0.677874	-0.127264	0.0715915	0.863972	-0.51817	0.195421	1.16728	0.846491	0	0	1.02791	-0.313664	0.217096	1.17694	1.04735	0	0
61.05	0.260178	1.24497	1.42833	0.649699	0.260242	0.822029	1.22726	-0.248292	-0.153663	1.39403	-0.0684412	0	0	1.20198	-0.568528	-0.211378	1.44248	-0.0236436	0	0	-0.690628	-0.12479	0.0731122	0.874565	-0.519992	0.198627	1.16586	0.844785	0	0	1.03482	-0.312568	0.216214	1.17622	1.0467	0	0
61.06	0.238779	1.22937	1.44621	0.650632	0.25945	0.816121	1.25783	-0.247637	-0.141883	1.40757	-0.0666874	0	0	1.22668	-0.569115	-0.208785	1.45363	-0.0216782	0	0	-0.676587	-0.133073	0.0730111	0.870914	-0.518655	0.193133	1.1666	0.846304	0	0	1.03616	-0.311845	0.218336	1.17564	1.0474	0	0
61.07	0.233344	1.22339	1.45004	0.651061	0.258891	0.812187	1.273	-0.247443	-0.137463	1.41762	-0.0654678	0	0	1.24107	-0.571158	-0.204583	1.46348	-0.0200793	0	0	-0.675525	-0.135945	0.0738472	0.873198	-0.518774	0.190866	1.16676	0.847965	0	0	1.03984	-0.309672	0.217822	1.17457	1.04854	0	0
61.08	0.22862	1.21807	1.45351	0.651454	0.25838	0.808482	1.28659	-0.246955	-0.133365	1.42679	-0.063618	0	0	1.25445	-0.572863	-0.20046	1.47279	-0.0183869	0	0	-0.675267	-0.138439	0.0742211	0.876014	-0.519037	0.189668	1.16679	0.851409	0	0	1.04345	-0.307907	0.217255	1.17375	1.04981	0	0
61.09	0.220884	1.20754	1.46018	0.651927	0.257841	0.804216	1.30595	-0.245883	-0.127886	1.43579	-0.0574267	0	0	1.27354	-0.573165	-0.195832	1.48164	-0.0155872	0	0	-0.668921	-0.141903	0.0742711	0.874836	-0.516706	0.182173	1.16732	0.864698	0	0	1.04519	-0.306043	0.216457	1.17362	1.05506	0	0
61.1	0.217313	1.2027	1.46331	0.652274	0.257402	0.800836	1.31812	-0.245547	-0.124491	1.44455	-0.0549607	0	0	1.28603	-0.573888	-0.191416	1.48996	-0.0140386	0	0	-0.669539	-0.143437	0.0733304	0.878485	-0.515794	0.180153	1.16728	0.866788	0	0	1.04788	-0.305776	0.215517	1.17417	1.05621	0	0
61.11	0.214178	1.19824	1.46627	0.652609	0.256997	0.79765	1.3297	-0.245278	-0.121164	1.45324	-0.0529503	0	0	1.29792	-0.574025	-0.186654	1.49781	-0.0125641	0	0	-0.670681	-0.144608	0.0720658	0.882608	-0.514518	0.178141	1.16692	0.868846	0	0	1.05048	-0.305943	0.214594	1.1749	1.05698	0	0
61.12	0.211588	1.19388	1.46898	0.652958	0.256649	0.79462	1.34048	-0.244706	-0.117728	1.46079	-0.0511606	0	0	1.30962	-0.573558	-0.181411	1.50532	-0.0110744	0	0	-0.672276	-0.14579	0.0703251	0.88706	-0.513295	0.177332	1.16646	0.872082	0	0	1.05292	-0.306371	0.213312	1.17662	1.05773	0	0
61.13	0.209763	1.18968	1.47096	0.653329	0.256354	0.791794	1.35068	-0.243698	-0.114551	1.46789	-0.0496086	0	0	1.32089	-0.573063	-0.176194	1.51241	-0.00966272	0	0	-0.674161	-0.146932	0.0686764	0.891575	-0.512244	0.177239	1.16595	0.875539	0	0	1.05536	-0.306656	0.212	1.17847	1.05873	0	0
61.14	0.208525	1.18563	1.47236	0.653705	0.256104	0.789172	1.36025	-0.241807	-0.110622	1.47405	-0.0482431	0	0	1.33161	-0.57261	-0.171221	1.51902	-0.00836685	0	0	-0.676278	-0.147833	0.0671133	0.89608	-0.511151	0.176555	1.16556	0.87842	0	0	1.05775	-0.307169	0.210703	1.18033	1.05981	0	0
61.15	0.20762	1.18155	1.47338	0.654048	0.255854	0.786741	1.36947	-0.239795	-0.106998	1.47971	-0.0470739	0	0	1.34194	-0.571942	-0.166492	1.52509	-0.00714708	0	0	-0.678421	-0.148463	0.0655092	0.900924	-0.509841	0.175511	1.16494	0.880567	0	0	1.05988	-0.307673	0.208937	1.18215	1.06063	0	0
61.16	0.206838	1.17742	1.47437	0.654343	0.255573	0.784513	1.37827	-0.238017	-0.10391	1.48475	-0.0460489	0	0	1.3519	-0.57065	-0.16171	1.53048	-0.00602863	0	0	-0.680576	-0.148948	0.0636384	0.906485	-0.5084	0.174963	1.16364	0.882495	0	0	1.06197	-0.308157	0.20696	1.18382	1.06089	0	0
61.17	0.205752	1.1734	1.47552	0.654643	0.255323	0.782491	1.38648	-0.236182	-0.100938	1.48911	-0.0450866	0	0	1.36107	-0.569304	-0.15736	1.53527	-0.00503652	0	0	-0.682826	-0.149709	0.0616672	0.911957	-0.506857	0.175207	1.16208	0.885464	0	0	1.0642	-0.308816	0.205232	1.18536	1.06138	0	0
61.18	0.204483	1.16948	1.47676	0.654963	0.255114	0.780653	1.39411	-0.234348	-0.0981863	1.49283	-0.0441918	0	0	1.36958	-0.568449	-0.153861	1.53973	-0.00423185	0	0	-0.685108	-0.15059	0.0597247	0.916992	-0.505121	0.175401	1.16076	0.888428	0	0	1.06646	-0.309805	0.203878	1.18697	1.06209	0	0
61.19	0.203198	1.1655	1.47804	0.655289	0.254987	0.778985	1.40136	-0.232779	-0.0957963	1.49624	-0.0434186	0	0	1.37758	-0.567986	-0.151101	1.54389	-0.00359823	0	0	-0.687275	-0.151421	0.0577754	0.921655	-0.503159	0.174534	1.15977	0.890611	0	0	1.06831	-0.310664	0.202366	1.18887	1.06214	0	0
61.2	0.201982	1.16121	1.47927	0.655637	0.254897	0.777436	1.40862	-0.231399	-0.0936769	1.49948	-0.0428188	0	0	1.3854	-0.567786	-0.148824	1.54743	-0.00335745	0	0	-0.689019	-0.152208	0.0558194	0.925961	-0.501216	0.173789	1.15914	0.892762	0	0	1.06974	-0.311437	0.200442	1.19092	1.06234	0	0
61.21	0.200803	1.15664	1.48043	0.655984	0.254858	0.776006	1.41583	-0.23016	-0.0917864	1.50238	-0.0423402	0	0	1.393	-0.567851	-0.146869	1.55029	-0.00336977	0	0	-0.690168	-0.152941	0.0538476	0.929803	-0.499386	0.173433	1.15875	0.894932	0	0	1.07085	-0.312623	0.19877	1.19289	1.0626	0	0
61.22	0.199663	1.15189	1.48151	0.656301	0.254872	0.774691	1.42267	-0.228927	-0.089928	1.50464	-0.0418888	0	0	1.40034	-0.567994	-0.145141	1.55262	-0.0035927	0	0	-0.690911	-0.153699	0.0518533	0.933316	-0.497911	0.173915	1.15847	0.897871	0	0	1.07157	-0.313851	0.196946	1.19492	1.06246	0	0
61.23	0.198964	1.14728	1.4824	0.656554	0.254947	0.773529	1.42883	-0.22821	-0.0886175	1.50645	-0.0415451	0	0	1.40723	-0.567984	-0.143398	1.55448	-0.00382689	0	0	-0.69178	-0.154236	0.0497475	0.936471	-0.496785	0.174835	1.15867	0.901451	0	0	1.07202	-0.314933	0.194784	1.19727	1.06204	0	0
61.24	0.198316	1.14277	1.48336	0.656745	0.255089	0.772485	1.43461	-0.227953	-0.0876482	1.50797	-0.0412757	0	0	1.41359	-0.567847	-0.141758	1.55595	-0.00399713	0	0	-0.692709	-0.154488	0.0474029	0.939118	-0.495649	0.175158	1.15965	0.903888	0	0	1.07212	-0.31669	0.192852	1.20024	1.06158	0	0
61.25	0.198006	1.13842	1.48408	0.656895	0.255286	0.771574	1.43991	-0.227878	-0.0870702	1.50909	-0.0408959	0	0	1.41951	-0.567592	-0.140014	1.55702	-0.00403371	0	0	-0.693655	-0.154332	0.0448429	0.941731	-0.494198	0.175254	1.16074	0.904615	0	0	1.07177	-0.319017	0.190781	1.20356	1.06046	0	0
61.26	0.198389	1.13437	1.48432	0.657001	0.255502	0.770861	1.44435	-0.22784	-0.086934	1.50954	-0.0402166	0	0	1.42493	-0.567019	-0.137918	1.55766	-0.00390267	0	0	-0.695003	-0.153784	0.042047	0.94506	-0.49233	0.175803	1.16103	0.903741	0	0	1.0711	-0.321531	0.18821	1.20738	1.05865	0	0
61.27	0.201225	1.13059	1.48277	0.656876	0.255696	0.770689	1.44658	-0.228048	-0.0885486	1.50779	-0.0390234	0	0	1.4297	-0.565556	-0.135186	1.55692	-0.00346211	0	0	-0.697713	-0.151886	0.0393713	0.949744	-0.490575	0.177312	1.16067	0.902342	0	0	1.07071	-0.323799	0.185254	1.2118	1.05613	0	0
61.28	0.200712	1.12714	1.48385	0.656974	0.256039	0.77027	1.44994	-0.228065	-0.0882358	1.50797	-0.0366579	0	0	1.4333	-0.565007	-0.134385	1.55694	-0.00211183	0	0	-0.699616	-0.151878	0.0360532	0.953447	-0.488447	0.179606	1.16016	0.89973	0	0	1.06983	-0.32678	0.182814	1.21643	1.05221	0	0
61.29	0.200894	1.12624	1.48408	0.657119	0.256507	0.770229	1.45031	-0.228147	-0.0886061	1.5084	-0.0327347	0	0	1.43369	-0.565288	-0.134337	1.55698	0.000533505	0	0	-0.703514	-0.150747	0.0336153	0.958564	-0.486939	0.184184	1.15888	0.89528	0	0	1.06949	-0.329926	0.181347	1.21883	1.04569	0	0
61.3	0.195677	1.11267	1.48917	0.657436	0.256724	0.768716	1.46558	-0.227298	-0.0859825	1.50836	-0.0439237	0	0	1.44778	-0.563515	-0.133997	1.55611	-0.00737505	0	0	-0.692839	-0.152283	0.0320705	0.95202	-0.478202	0.169761	1.15993	0.931427	0	0	1.06485	-0.329861	0.176568	1.22141	1.06077	0	0
61.31	0.194196	1.10747	1.4908	0.657616	0.257166	0.768333	1.47057	-0.226983	-0.0855696	1.50822	-0.0440373	0	0	1.45249	-0.563198	-0.134189	1.55567	-0.00780899	0	0	-0.691627	-0.152044	0.0299912	0.953118	-0.474859	0.168418	1.1599	0.935346	0	0	1.06235	-0.331786	0.173423	1.22461	1.06098	0	0
61.32	0.192711	1.10214	1.49235	0.65779	0.257624	0.768019	1.47554	-0.226539	-0.0851112	1.50805	-0.0439969	0	0	1.45709	-0.562927	-0.134572	1.55503	-0.00824527	0	0	-0.690181	-0.151842	0.027929	0.953871	-0.471443	0.166375	1.16021	0.939459	0	0	1.05934	-0.333182	0.16923	1.22811	1.06148	0	0
61.33	0.191327	1.09669	1.4937	0.657941	0.258109	0.767779	1.4802	-0.225771	-0.084675	1.50748	-0.0437506	0	0	1.46153	-0.562603	-0.134949	1.5541	-0.00864243	0	0	-0.688431	-0.151774	0.025931	0.954663	-0.468266	0.165198	1.1601	0.944146	0	0	1.05634	-0.334663	0.165337	1.23155	1.06205	0	0
61.34	0.190073	1.09118	1.49477	0.658082	0.258621	0.767613	1.48434	-0.224411	-0.0842122	1.50606	-0.0434916	0	0	1.46581	-0.562215	-0.135178	1.55287	-0.00894752	0	0	-0.686524	-0.151583	0.0240706	0.955479	-0.464994	0.163988	1.15978	0.948128	0	0	1.05326	-0.336513	0.161895	1.23491	1.06258	0	0
61.35	0.189077	1.08575	1.49548	0.658209	0.259168	0.767516	1.48803	-0.222699	-0.0837599	1.50411	-0.043524	0	0	1.46992	-0.561798	-0.135184	1.55151	-0.00918479	0	0	-0.68473	-0.151341	0.0223124	0.956549	-0.461846	0.163815	1.15917	0.951833	0	0	1.05024	-0.338802	0.158893	1.23849	1.06288	0	0
61.36	0.188323	1.08046	1.49602	0.658319	0.259734	0.767495	1.4917	-0.221327	-0.0834474	1.50219	-0.0441232	0	0	1.4738	-0.561143	-0.134975	1.55002	-0.00944782	0	0	-0.683548	-0.151185	0.0202625	0.957644	-0.458689	0.16407	1.15909	0.954929	0	0	1.04756	-0.341972	0.156338	1.24317	1.06344	0	0
